<svg width="2114" height="1471" viewBox="0 0 2114 1471" fill="none" xmlns="http://www.w3.org/2000/svg">
<circle cx="1057" cy="414" r="323.5" stroke="#F5F5F5" stroke-width="3"/>
<circle cx="1057" cy="414" r="470.5" stroke="#F5F5F5" stroke-width="3"/>
<circle cx="1057" cy="414" r="627.5" stroke="#F5F5F5" stroke-width="3"/>
<circle cx="1057" cy="414" r="818.5" stroke="#F5F5F5" stroke-width="3"/>
<circle cx="1057" cy="414" r="1055.5" stroke="#F5F5F5" stroke-width="3"/>
<circle cx="1057" cy="414" r="208.855" stroke="#0D1F2F" stroke-width="3"/>
<rect x="1041.25" y="129.909" width="180.038" height="47.0112" transform="rotate(31.6708 1041.25 129.909)" fill="white"/>
<rect x="1041.25" y="129.909" width="180.038" height="47.0112" transform="rotate(31.6708 1041.25 129.909)" fill="white"/>
<rect x="1041.25" y="129.909" width="180.038" height="47.0112" transform="rotate(31.6708 1041.25 129.909)" fill="white"/>
<rect x="916.023" y="218.616" width="179.232" height="47.0112" transform="rotate(-30 916.023 218.616)" fill="white"/>
<rect x="916.023" y="218.616" width="179.232" height="47.0112" transform="rotate(-30 916.023 218.616)" fill="white"/>
<rect x="916.023" y="218.616" width="179.232" height="47.0112" transform="rotate(-30 916.023 218.616)" fill="white"/>
<rect x="963" y="184" width="171.176" height="47.0112" fill="white"/>
<rect x="963" y="184" width="171.176" height="47.0112" fill="white"/>
<rect x="963" y="184" width="171.176" height="47.0112" fill="white"/>
<path d="M951.891 233.027C951.619 232.538 951.191 232.219 950.606 232.071C950.032 231.916 949.401 232.029 948.713 232.411C948.13 232.734 947.738 233.112 947.535 233.544C947.326 233.965 947.335 234.38 947.561 234.788C947.678 234.998 947.825 235.167 948.004 235.297C948.176 235.415 948.4 235.489 948.676 235.519C948.957 235.531 949.29 235.499 949.674 235.423C950.071 235.34 950.551 235.203 951.116 235.012C952.528 234.534 953.724 234.382 954.704 234.555C955.685 234.728 956.472 235.351 957.067 236.424L957.183 236.633C957.5 237.205 957.683 237.782 957.731 238.365C957.785 238.929 957.71 239.482 957.507 240.022C957.303 240.561 956.975 241.071 956.524 241.55C956.073 242.028 955.504 242.458 954.816 242.84C954.011 243.286 953.238 243.57 952.498 243.691C951.762 243.794 951.08 243.76 950.452 243.59C949.818 243.408 949.247 243.107 948.74 242.687C948.226 242.255 947.791 241.719 947.435 241.078L947.145 240.553L949.453 239.273L949.686 239.693C950.093 240.427 950.63 240.9 951.295 241.11C951.966 241.302 952.75 241.149 953.648 240.652C954.348 240.264 954.783 239.824 954.953 239.334C955.123 238.843 955.092 238.388 954.859 237.968C954.749 237.77 954.61 237.603 954.443 237.466C954.27 237.319 954.057 237.223 953.805 237.18C953.546 237.126 953.232 237.124 952.864 237.176C952.497 237.227 952.057 237.341 951.545 237.518C950.869 237.756 950.229 237.936 949.625 238.057C949.015 238.166 948.44 238.188 947.9 238.121C947.372 238.048 946.887 237.86 946.444 237.557C946.001 237.253 945.612 236.799 945.276 236.192L945.217 236.087C944.939 235.586 944.783 235.07 944.749 234.541C944.719 233.993 944.798 233.461 944.985 232.946C945.184 232.424 945.491 231.934 945.907 231.474C946.335 231.008 946.869 230.598 947.511 230.242C948.234 229.841 948.933 229.59 949.609 229.49C950.279 229.378 950.897 229.393 951.464 229.536C952.043 229.673 952.552 229.917 952.991 230.268C953.441 230.613 953.805 231.036 954.083 231.537L954.432 232.167L952.124 233.447L951.891 233.027Z" fill="black"/>
<path d="M962.218 228.988C961.476 227.334 961.313 225.865 961.731 224.581C962.161 223.292 963.112 222.317 964.584 221.657C966.056 220.996 967.41 220.936 968.646 221.477C969.895 222.013 970.891 223.108 971.633 224.762L972.911 227.609C973.675 229.312 973.837 230.796 973.396 232.06C972.968 233.32 972.017 234.28 970.546 234.94C969.074 235.601 967.719 235.675 966.481 235.164C965.255 234.647 964.26 233.538 963.496 231.835L962.218 228.988ZM969.563 232.751C970.001 232.554 970.336 232.323 970.568 232.059C970.794 231.782 970.941 231.474 971.009 231.137C971.077 230.8 971.068 230.438 970.983 230.053C970.897 229.667 970.759 229.262 970.568 228.836L969.159 225.697C968.979 225.296 968.767 224.938 968.524 224.623C968.28 224.309 968.01 224.065 967.713 223.891C967.416 223.718 967.089 223.623 966.731 223.609C966.368 223.581 965.98 223.661 965.566 223.846C965.153 224.032 964.836 224.269 964.615 224.559C964.388 224.836 964.241 225.143 964.173 225.48C964.105 225.817 964.108 226.182 964.181 226.573C964.254 226.964 964.381 227.36 964.561 227.761L965.97 230.9C966.161 231.325 966.372 231.698 966.603 232.018C966.835 232.338 967.099 232.585 967.396 232.759C967.693 232.932 968.021 233.026 968.378 233.041C968.73 233.044 969.125 232.947 969.563 232.751Z" fill="black"/>
<path d="M978.112 216.321L980.603 215.447L984.404 226.28L990.405 224.174L991.24 226.551L982.747 229.532L978.112 216.321Z" fill="black"/>
<path d="M1005.57 219.329L1000.97 220.521L1001.06 223.596L998.386 224.287L998.114 209.897L1002.92 208.654L1009.66 221.372L1006.98 222.063L1005.57 219.329ZM1000.88 217.941L1004.38 217.035L1001.02 210.508L1000.67 210.599L1000.88 217.941Z" fill="black"/>
<path d="M1026.12 218.27L1023.51 218.713L1022.81 214.573C1022.76 214.257 1022.63 214.015 1022.42 213.847C1022.23 213.677 1021.94 213.624 1021.56 213.689L1018.57 214.2L1019.45 219.405L1016.85 219.848L1014.5 206.047L1019.78 205.147C1020.49 205.026 1021.13 205.018 1021.71 205.124C1022.28 205.229 1022.77 205.429 1023.19 205.723C1023.61 206.002 1023.96 206.356 1024.22 206.785C1024.5 207.211 1024.68 207.687 1024.77 208.213L1024.85 208.686C1024.95 209.252 1024.89 209.81 1024.67 210.361C1024.45 210.898 1024.05 211.353 1023.46 211.723L1023.52 212.078C1023.99 212.052 1024.38 212.168 1024.7 212.425C1025.02 212.681 1025.23 213.038 1025.3 213.498L1026.12 218.27ZM1018.14 211.716L1020.63 211.293C1021.26 211.185 1021.71 210.959 1021.99 210.614C1022.27 210.255 1022.36 209.807 1022.27 209.268L1022.23 209.031C1022.15 208.571 1021.92 208.205 1021.54 207.932C1021.15 207.646 1020.64 207.557 1020.01 207.665L1017.53 208.088L1018.14 211.716Z" fill="black"/>
<path d="M1059.33 206.28C1059.33 205.72 1059.11 205.233 1058.67 204.82C1058.25 204.407 1057.64 204.2 1056.85 204.2C1056.19 204.2 1055.66 204.34 1055.27 204.62C1054.89 204.887 1054.69 205.253 1054.69 205.72C1054.69 205.96 1054.74 206.18 1054.83 206.38C1054.93 206.567 1055.09 206.74 1055.31 206.9C1055.55 207.047 1055.86 207.18 1056.23 207.3C1056.62 207.42 1057.11 207.533 1057.69 207.64C1059.16 207.907 1060.28 208.353 1061.05 208.98C1061.83 209.607 1062.21 210.533 1062.21 211.76V212C1062.21 212.653 1062.09 213.247 1061.85 213.78C1061.63 214.3 1061.29 214.747 1060.85 215.12C1060.41 215.493 1059.88 215.78 1059.25 215.98C1058.63 216.18 1057.92 216.28 1057.13 216.28C1056.21 216.28 1055.4 216.153 1054.69 215.9C1054 215.633 1053.42 215.273 1052.95 214.82C1052.49 214.353 1052.13 213.813 1051.89 213.2C1051.65 212.573 1051.53 211.893 1051.53 211.16V210.56H1054.17V211.04C1054.17 211.88 1054.41 212.553 1054.89 213.06C1055.39 213.553 1056.15 213.8 1057.17 213.8C1057.97 213.8 1058.57 213.627 1058.95 213.28C1059.34 212.933 1059.53 212.52 1059.53 212.04C1059.53 211.813 1059.49 211.6 1059.41 211.4C1059.33 211.187 1059.19 211 1058.99 210.84C1058.79 210.667 1058.52 210.513 1058.17 210.38C1057.83 210.247 1057.39 210.133 1056.85 210.04C1056.15 209.92 1055.5 209.767 1054.91 209.58C1054.33 209.38 1053.81 209.12 1053.37 208.8C1052.95 208.48 1052.61 208.08 1052.37 207.6C1052.13 207.12 1052.01 206.533 1052.01 205.84V205.72C1052.01 205.147 1052.13 204.62 1052.35 204.14C1052.59 203.647 1052.92 203.22 1053.33 202.86C1053.76 202.5 1054.27 202.22 1054.85 202.02C1055.45 201.82 1056.12 201.72 1056.85 201.72C1057.68 201.72 1058.41 201.84 1059.05 202.08C1059.69 202.307 1060.23 202.62 1060.65 203.02C1061.09 203.42 1061.42 203.88 1061.63 204.4C1061.86 204.92 1061.97 205.467 1061.97 206.04V206.76H1059.33V206.28Z" fill="black"/>
<path d="M1073.84 211.706L1073.25 211.656L1070 202.269L1072.87 202.512L1075.18 209.411L1075.54 209.441L1078.97 203.028L1081.84 203.27L1077.07 211.979L1076.47 211.929L1076.06 216.831L1073.43 216.609L1073.84 211.706Z" fill="black"/>
<path d="M1096.43 209.759C1096.52 209.207 1096.39 208.69 1096.02 208.209C1095.67 207.73 1095.11 207.424 1094.33 207.292C1093.68 207.18 1093.13 207.23 1092.71 207.441C1092.28 207.639 1092.03 207.968 1091.95 208.428C1091.91 208.664 1091.92 208.889 1091.98 209.102C1092.04 209.302 1092.17 209.499 1092.36 209.695C1092.58 209.88 1092.86 210.063 1093.2 210.244C1093.56 210.427 1094.02 210.621 1094.59 210.824C1095.99 211.334 1097.02 211.962 1097.67 212.71C1098.33 213.457 1098.56 214.436 1098.35 215.645L1098.31 215.882C1098.2 216.526 1097.98 217.09 1097.65 217.576C1097.34 218.05 1096.94 218.435 1096.44 218.729C1095.95 219.023 1095.37 219.216 1094.72 219.308C1094.07 219.4 1093.36 219.38 1092.58 219.248C1091.68 219.093 1090.89 218.832 1090.24 218.463C1089.6 218.084 1089.09 217.632 1088.71 217.106C1088.32 216.568 1088.07 215.976 1087.93 215.331C1087.8 214.673 1087.8 213.983 1087.92 213.26L1088.02 212.668L1090.62 213.112L1090.54 213.585C1090.4 214.413 1090.53 215.117 1090.91 215.697C1091.32 216.266 1092.03 216.637 1093.04 216.81C1093.83 216.944 1094.44 216.873 1094.88 216.596C1095.32 216.319 1095.58 215.944 1095.66 215.471C1095.7 215.248 1095.69 215.031 1095.65 214.82C1095.61 214.596 1095.5 214.389 1095.33 214.197C1095.16 213.993 1094.92 213.796 1094.6 213.606C1094.28 213.417 1093.86 213.231 1093.35 213.049C1092.68 212.812 1092.07 212.553 1091.52 212.27C1090.97 211.974 1090.51 211.632 1090.13 211.242C1089.76 210.855 1089.5 210.405 1089.35 209.892C1089.19 209.378 1089.17 208.78 1089.29 208.096L1089.31 207.978C1089.4 207.413 1089.6 206.912 1089.91 206.477C1090.23 206.031 1090.62 205.666 1091.09 205.38C1091.57 205.097 1092.12 204.906 1092.73 204.807C1093.35 204.711 1094.03 204.724 1094.75 204.847C1095.57 204.986 1096.27 205.228 1096.86 205.572C1097.45 205.903 1097.93 206.301 1098.28 206.767C1098.65 207.235 1098.89 207.744 1099.01 208.292C1099.15 208.843 1099.17 209.401 1099.07 209.966L1098.95 210.676L1096.35 210.232L1096.43 209.759Z" fill="black"/>
<path d="M1108.49 207.823L1118.25 210.347L1117.62 212.787L1114.02 211.855L1111.15 222.97L1108.59 222.309L1111.47 211.194L1107.86 210.263L1108.49 207.823Z" fill="black"/>
<path d="M1127.34 213.103L1135.68 216.03L1134.85 218.408L1129 216.355L1127.94 219.374L1133.56 221.348L1132.73 223.726L1127.1 221.752L1126.03 224.809L1132.11 226.942L1131.27 229.32L1122.7 226.313L1127.34 213.103Z" fill="black"/>
<path d="M1144.05 219.275L1148.29 221.175L1144.71 231.1L1143.87 232.962L1144.31 233.158L1145.15 231.297L1150.18 222.027L1154.42 223.927L1148.68 236.699L1146.49 235.717L1150.33 227.177L1151.86 224.356L1151.42 224.16L1145.33 235.192L1141.71 233.571L1145.87 221.67L1145.43 221.473L1144.34 224.491L1140.51 233.03L1138.32 232.048L1144.05 219.275Z" fill="black"/>
<path d="M1166.27 234.986C1166.54 234.497 1166.58 233.964 1166.4 233.39C1166.23 232.821 1165.8 232.346 1165.11 231.965C1164.52 231.642 1164 231.509 1163.52 231.566C1163.05 231.612 1162.71 231.839 1162.48 232.247C1162.36 232.457 1162.3 232.672 1162.28 232.892C1162.27 233.1 1162.33 233.33 1162.45 233.579C1162.59 233.824 1162.79 234.089 1163.06 234.375C1163.34 234.668 1163.71 235.003 1164.17 235.381C1165.33 236.325 1166.09 237.259 1166.46 238.182C1166.84 239.105 1166.72 240.103 1166.13 241.176L1166.01 241.386C1165.7 241.957 1165.3 242.418 1164.83 242.768C1164.38 243.113 1163.88 243.342 1163.31 243.455C1162.74 243.568 1162.14 243.56 1161.49 243.431C1160.85 243.302 1160.18 243.047 1159.49 242.665C1158.69 242.219 1158.04 241.714 1157.54 241.15C1157.07 240.58 1156.74 239.984 1156.55 239.362C1156.37 238.727 1156.32 238.084 1156.41 237.431C1156.5 236.766 1156.72 236.113 1157.08 235.472L1157.37 234.947L1159.68 236.228L1159.45 236.647C1159.04 237.382 1158.92 238.087 1159.1 238.763C1159.29 239.434 1159.83 240.018 1160.73 240.516C1161.43 240.904 1162.03 241.04 1162.54 240.924C1163.05 240.809 1163.42 240.541 1163.65 240.121C1163.76 239.923 1163.83 239.717 1163.85 239.503C1163.89 239.278 1163.86 239.047 1163.76 238.81C1163.67 238.561 1163.5 238.294 1163.27 238.01C1163.03 237.725 1162.7 237.413 1162.28 237.072C1161.72 236.625 1161.22 236.177 1160.8 235.729C1160.39 235.27 1160.06 234.794 1159.83 234.3C1159.62 233.814 1159.52 233.302 1159.54 232.766C1159.56 232.23 1159.74 231.659 1160.08 231.052L1160.14 230.947C1160.42 230.446 1160.77 230.04 1161.2 229.73C1161.65 229.415 1162.14 229.2 1162.68 229.086C1163.23 228.978 1163.81 228.979 1164.42 229.088C1165.04 229.204 1165.67 229.44 1166.31 229.796C1167.03 230.197 1167.62 230.657 1168.06 231.178C1168.51 231.686 1168.82 232.219 1169 232.775C1169.19 233.339 1169.26 233.899 1169.19 234.458C1169.14 235.022 1168.97 235.555 1168.69 236.057L1168.34 236.686L1166.03 235.406L1166.27 234.986Z" fill="black"/>
</svg>
