<svg width="1258" height="1258" viewBox="0 0 1258 1258" fill="none" xmlns="http://www.w3.org/2000/svg">
<circle cx="629" cy="629" r="323.5" stroke="#F5F5F5" stroke-width="3"/>
<circle cx="629" cy="629" r="470.5" stroke="#F5F5F5" stroke-width="3"/>
<circle cx="629" cy="629" r="627.5" stroke="#F5F5F5" stroke-width="3"/>
<circle cx="629" cy="629" r="208.855" stroke="#0D1F2F" stroke-width="3"/>
<rect x="595.75" y="368.57" width="111.552" height="47.0112" transform="rotate(15 595.75 368.57)" fill="white"/>
<rect x="595.75" y="368.57" width="111.552" height="47.0112" transform="rotate(15 595.75 368.57)" fill="white"/>
<rect x="595.75" y="368.57" width="111.552" height="47.0112" transform="rotate(15 595.75 368.57)" fill="white"/>
<rect x="674.816" y="415.449" width="111.552" height="47.0112" transform="rotate(165 674.816 415.449)" fill="white"/>
<rect x="674.816" y="415.449" width="111.552" height="47.0112" transform="rotate(165 674.816 415.449)" fill="white"/>
<rect x="674.816" y="415.449" width="111.552" height="47.0112" transform="rotate(165 674.816 415.449)" fill="white"/>
<path d="M578.694 429.903C578.633 429.656 578.54 429.445 578.415 429.268C578.295 429.083 578.117 428.933 577.88 428.817C577.642 428.695 577.325 428.596 576.931 428.52C576.536 428.444 576.036 428.388 575.429 428.351C574.753 428.304 574.103 428.225 573.478 428.112C572.859 427.998 572.293 427.827 571.78 427.599C571.272 427.363 570.839 427.052 570.48 426.665C570.129 426.276 569.879 425.785 569.731 425.191C569.588 424.616 569.584 424.063 569.721 423.533C569.855 422.996 570.108 422.504 570.48 422.056C570.85 421.601 571.321 421.205 571.895 420.868C572.475 420.529 573.137 420.267 573.883 420.081C574.9 419.828 575.833 419.79 576.682 419.967C577.532 420.145 578.244 420.501 578.82 421.035C579.402 421.568 579.796 422.245 580 423.066L577.176 423.769C577.076 423.365 576.902 423.032 576.656 422.772C576.415 422.503 576.102 422.323 575.716 422.231C575.338 422.137 574.892 422.154 574.381 422.282C573.888 422.404 573.496 422.582 573.205 422.816C572.913 423.043 572.716 423.303 572.615 423.597C572.512 423.884 572.499 424.183 572.576 424.492C572.634 424.726 572.744 424.923 572.905 425.085C573.072 425.244 573.293 425.377 573.568 425.483C573.842 425.589 574.168 425.672 574.546 425.733C574.923 425.793 575.353 425.837 575.836 425.864C576.645 425.904 577.369 425.996 578.008 426.138C578.654 426.28 579.213 426.479 579.687 426.737C580.16 426.995 580.551 427.323 580.858 427.723C581.166 428.123 581.391 428.607 581.532 429.176C581.682 429.776 581.698 430.342 581.583 430.874C581.467 431.406 581.229 431.891 580.869 432.33C580.508 432.768 580.043 433.149 579.473 433.473C578.902 433.796 578.238 434.052 577.48 434.241C576.798 434.411 576.103 434.49 575.395 434.478C574.686 434.46 574.015 434.335 573.38 434.104C572.752 433.872 572.206 433.511 571.742 433.023C571.278 432.535 570.95 431.902 570.756 431.125L573.608 430.414C573.715 430.844 573.872 431.191 574.079 431.455C574.285 431.719 574.532 431.912 574.817 432.036C575.109 432.157 575.433 432.218 575.788 432.216C576.15 432.214 576.533 432.162 576.937 432.061C577.43 431.938 577.817 431.768 578.098 431.551C578.386 431.331 578.575 431.08 578.665 430.795C578.761 430.51 578.771 430.212 578.694 429.903Z" fill="black"/>
<path d="M596.221 422.716L596.34 423.38C596.531 424.443 596.558 425.424 596.422 426.322C596.286 427.219 596.008 428.013 595.59 428.704C595.17 429.388 594.623 429.952 593.949 430.397C593.281 430.841 592.505 431.143 591.621 431.301C590.743 431.459 589.911 431.447 589.124 431.264C588.343 431.08 587.634 430.741 586.997 430.247C586.358 429.746 585.815 429.1 585.368 428.307C584.928 427.513 584.612 426.584 584.421 425.52L584.302 424.857C584.11 423.787 584.083 422.806 584.22 421.915C584.357 421.017 584.634 420.223 585.053 419.533C585.478 418.842 586.024 418.274 586.692 417.83C587.366 417.385 588.142 417.083 589.02 416.926C589.904 416.767 590.736 416.779 591.517 416.963C592.304 417.146 593.013 417.488 593.646 417.99C594.285 418.49 594.824 419.138 595.264 419.932C595.71 420.718 596.029 421.646 596.221 422.716ZM593.428 423.903L593.305 423.22C593.172 422.477 592.987 421.835 592.751 421.296C592.515 420.756 592.232 420.317 591.9 419.98C591.568 419.643 591.196 419.412 590.783 419.288C590.37 419.157 589.919 419.135 589.432 419.223C588.945 419.31 588.53 419.487 588.188 419.754C587.851 420.013 587.586 420.358 587.392 420.79C587.205 421.22 587.094 421.73 587.061 422.318C587.028 422.906 587.078 423.571 587.211 424.315L587.334 424.997C587.466 425.734 587.651 426.376 587.888 426.922C588.124 427.461 588.408 427.903 588.741 428.247C589.073 428.584 589.445 428.818 589.859 428.949C590.273 429.08 590.723 429.101 591.21 429.014C591.697 428.926 592.112 428.749 592.454 428.483C592.797 428.216 593.062 427.868 593.249 427.437C593.435 427 593.545 426.488 593.578 425.9C593.61 425.305 593.56 424.64 593.428 423.903Z" fill="black"/>
<path d="M609.479 426.398L609.741 428.668L602.63 429.488L602.368 427.218L609.479 426.398ZM601.941 415.255L603.571 429.38L600.66 429.716L599.031 415.591L601.941 415.255Z" fill="black"/>
<path d="M618.179 416.376L614.93 428.348L611.819 428.51L616.355 414.036L618.335 413.933L618.179 416.376ZM622.001 427.98L617.516 416.411L617.077 413.998L619.076 413.894L625.121 427.817L622.001 427.98ZM621.55 422.703L621.669 424.995L614.17 425.386L614.05 423.094L621.55 422.703Z" fill="black"/>
<path d="M628.008 413.679L633.31 413.755C634.397 413.771 635.329 413.947 636.106 414.284C636.889 414.621 637.487 415.111 637.901 415.755C638.315 416.399 638.515 417.186 638.502 418.117C638.491 418.879 638.352 419.531 638.083 420.074C637.822 420.611 637.454 421.058 636.98 421.416C636.513 421.768 635.965 422.046 635.337 422.252L634.402 422.727L629.793 422.661L629.807 420.376L633.234 420.425C633.748 420.432 634.176 420.347 634.517 420.17C634.858 419.992 635.116 419.742 635.29 419.419C635.47 419.096 635.563 418.72 635.57 418.29C635.576 417.834 635.497 417.439 635.333 417.105C635.168 416.771 634.915 416.513 634.572 416.332C634.23 416.151 633.798 416.057 633.277 416.05L630.905 416.016L630.733 427.938L627.804 427.896L628.008 413.679ZM635.752 428.011L632.601 421.627L635.697 421.652L638.889 427.919L638.887 428.056L635.752 428.011Z" fill="black"/>
<path d="M662.721 416.142L661.04 430.261L658.131 429.915L653.585 419.775L652.458 429.24L649.549 428.893L651.23 414.774L654.139 415.12L658.694 425.271L659.821 415.797L662.721 416.142Z" fill="black"/>
<path d="M670.478 417.539L667.889 431.52L665.008 430.986L667.597 417.005L670.478 417.539ZM674.941 424.543L674.525 426.79L668.168 425.613L668.585 423.366L674.941 424.543ZM676.719 418.694L676.302 420.951L669.273 419.649L669.69 417.393L676.719 418.694Z" fill="black"/>
<path d="M686.807 421.152L683.371 434.949L680.537 434.243L683.974 420.446L686.807 421.152ZM691.053 422.209L690.498 424.436L679.24 421.632L679.795 419.405L691.053 422.209Z" fill="black"/>
</svg>
