<svg width="24" height="24" viewBox="0 0 24 24" fill="none" xmlns="http://www.w3.org/2000/svg">
<path d="M12 0C5.374 0 0 5.374 0 12C0 18.626 5.374 24 12 24C18.626 24 24 18.626 24 12C24 5.374 18.629 0 12 0ZM5.92 12.403L5.971 12.322L9.094 7.438C9.10446 7.42195 9.11904 7.40899 9.13621 7.4005C9.15339 7.392 9.17253 7.38828 9.19164 7.38971C9.21075 7.39114 9.22912 7.39767 9.24484 7.40863C9.26056 7.41959 9.27305 7.43457 9.281 7.452C9.801 8.621 10.253 10.075 10.041 10.98C9.953 11.352 9.706 11.856 9.427 12.322C9.39121 12.3902 9.35216 12.4566 9.31 12.521C9.2999 12.5354 9.28639 12.547 9.27068 12.5549C9.25497 12.5627 9.23756 12.5665 9.22 12.566H6.013C5.99386 12.5663 5.97499 12.5614 5.95841 12.5518C5.94182 12.5423 5.92814 12.5284 5.91881 12.5117C5.90948 12.495 5.90485 12.476 5.90541 12.4569C5.90597 12.4378 5.9117 12.4191 5.922 12.403H5.92ZM19.834 14.083C19.8342 14.1044 19.8282 14.1253 19.8167 14.1433C19.8051 14.1612 19.7885 14.1754 19.769 14.184C19.526 14.287 18.699 14.669 18.355 15.146C17.477 16.368 16.807 18.116 15.307 18.116H9.053C8.52497 18.1152 8.00226 18.0104 7.51476 17.8075C7.02726 17.6046 6.58451 17.3076 6.21183 16.9336C5.83915 16.5595 5.54384 16.1156 5.34277 15.6274C5.1417 15.1391 5.03882 14.616 5.04 14.088V14.016C5.04 13.958 5.088 13.91 5.148 13.91H8.633C8.703 13.91 8.753 13.973 8.748 14.042C8.722 14.268 8.765 14.501 8.873 14.712C9.079 15.132 9.509 15.394 9.972 15.394H11.698V14.047H9.99C9.96999 14.0468 9.95041 14.0411 9.93338 14.0306C9.91635 14.0201 9.90251 14.0051 9.89335 13.9873C9.8842 13.9695 9.88007 13.9496 9.88142 13.9296C9.88276 13.9096 9.88954 13.8904 9.901 13.874L9.964 13.784C10.124 13.553 10.355 13.198 10.585 12.792C10.741 12.518 10.893 12.226 11.015 11.932C11.039 11.88 11.058 11.825 11.08 11.772C11.113 11.678 11.147 11.59 11.171 11.503C11.1946 11.4292 11.2162 11.3549 11.236 11.28C11.293 11.03 11.317 10.766 11.317 10.493C11.317 10.385 11.313 10.272 11.303 10.166C11.298 10.049 11.283 9.931 11.269 9.814C11.2578 9.70932 11.2418 9.6052 11.221 9.502C11.1941 9.34485 11.1614 9.18874 11.123 9.034L11.109 8.974C11.079 8.866 11.053 8.764 11.019 8.657C10.9238 8.32841 10.8143 8.0041 10.691 7.685C10.648 7.56497 10.6007 7.44656 10.549 7.33C10.477 7.152 10.403 6.991 10.336 6.84C10.3027 6.77531 10.2713 6.70961 10.242 6.643C10.2095 6.57114 10.1751 6.50012 10.139 6.43C10.115 6.377 10.086 6.326 10.067 6.278L9.856 5.89C9.827 5.837 9.875 5.772 9.933 5.789L11.253 6.146H11.263L11.436 6.196L11.628 6.25L11.698 6.269V5.486C11.698 5.107 12 4.8 12.377 4.8C12.466 4.79976 12.5542 4.81753 12.6361 4.85225C12.7181 4.88696 12.7922 4.9379 12.854 5.002C12.9817 5.13078 13.0535 5.30465 13.054 5.486V6.65L13.195 6.689C13.205 6.694 13.217 6.699 13.226 6.706C13.26 6.73 13.31 6.768 13.373 6.816C13.423 6.854 13.476 6.902 13.538 6.953C13.7355 7.11388 13.9269 7.28199 14.112 7.457C14.326 7.656 14.566 7.889 14.796 8.148C14.861 8.222 14.923 8.294 14.988 8.374C15.05 8.453 15.12 8.53 15.178 8.606C15.257 8.71 15.338 8.818 15.413 8.93C15.446 8.983 15.487 9.038 15.518 9.091C15.614 9.233 15.696 9.379 15.775 9.526C15.809 9.593 15.842 9.667 15.871 9.739C15.96 9.936 16.03 10.135 16.073 10.337C16.0872 10.3799 16.0969 10.4241 16.102 10.469V10.479C16.116 10.536 16.121 10.599 16.126 10.663C16.1542 10.9586 16.118 11.2567 16.02 11.537C15.989 11.621 15.96 11.707 15.922 11.791C15.847 11.961 15.761 12.134 15.658 12.293C15.624 12.353 15.583 12.415 15.545 12.475C15.502 12.538 15.456 12.598 15.418 12.655C15.363 12.7307 15.3053 12.8044 15.245 12.876C15.192 12.948 15.139 13.02 15.079 13.085C14.998 13.183 14.919 13.275 14.834 13.363C14.786 13.421 14.734 13.481 14.678 13.533C14.626 13.593 14.57 13.646 14.522 13.694C14.438 13.778 14.372 13.841 14.314 13.896L14.177 14.018C14.1579 14.0371 14.132 14.0479 14.105 14.048H13.054V15.394H14.376C14.671 15.394 14.952 15.29 15.18 15.096C15.257 15.029 15.595 14.736 15.996 14.294C16.0091 14.279 16.0266 14.2684 16.046 14.264L19.696 13.207C19.712 13.2024 19.7289 13.2015 19.7453 13.2045C19.7617 13.2075 19.7772 13.2142 19.7906 13.2242C19.804 13.2342 19.8148 13.2471 19.8224 13.262C19.8299 13.2769 19.8339 13.2933 19.834 13.31V14.083Z" fill="white"/>
</svg>