<svg width="24" height="24" viewBox="0 0 24 24" fill="none" xmlns="http://www.w3.org/2000/svg">
<path d="M12 0C5.3725 0 0 5.3725 0 12C0 18.6275 5.3725 24 12 24C18.6275 24 24 18.6275 24 12C24 5.3725 18.6275 0 12 0ZM16.8813 9.83C16.8863 9.9325 16.8875 10.035 16.8875 10.135C16.8875 13.26 14.5113 16.8613 10.1638 16.8613C8.87912 16.8634 7.62121 16.4944 6.54125 15.7987C6.725 15.8212 6.91375 15.83 7.105 15.83C8.2125 15.83 9.23125 15.4538 10.04 14.8188C9.54715 14.8091 9.06959 14.6459 8.67389 14.3519C8.27819 14.0579 7.98406 13.6478 7.8325 13.1788C8.18644 13.2461 8.55106 13.2319 8.89875 13.1375C8.36381 13.0293 7.88275 12.7395 7.53713 12.3171C7.19152 11.8947 7.00263 11.3658 7.0025 10.82V10.7913C7.32125 10.9675 7.68625 11.075 8.07375 11.0875C7.57225 10.7537 7.21723 10.2408 7.08131 9.65392C6.94538 9.06699 7.03881 8.45032 7.3425 7.93C7.93619 8.66 8.67658 9.25718 9.51571 9.68289C10.3548 10.1086 11.274 10.3533 12.2137 10.4013C12.0943 9.89414 12.1457 9.36176 12.36 8.88688C12.5743 8.412 12.9395 8.02124 13.3988 7.77533C13.8582 7.52942 14.3858 7.44215 14.8999 7.52709C15.4139 7.61203 15.8855 7.86441 16.2413 8.245C16.7702 8.14034 17.2775 7.94632 17.7413 7.67125C17.565 8.21892 17.1958 8.68397 16.7025 8.98C17.1711 8.92356 17.6286 8.7976 18.06 8.60625C17.7431 9.08112 17.3439 9.49555 16.8813 9.83V9.83Z" fill="white"/>
</svg>
