<svg width="512" height="512" viewBox="0 0 512 512" fill="none" xmlns="http://www.w3.org/2000/svg">
<g clip-path="url(#clip0_1557_1564)">
<path d="M256 512C397.385 512 512 397.385 512 256C512 114.615 397.385 0 256 0C114.615 0 0 114.615 0 256C0 397.385 114.615 512 256 512Z" fill="#0D1F2F"/>
<path d="M256.001 309.11C285.332 309.11 309.111 285.332 309.111 256C309.111 226.668 285.332 202.89 256.001 202.89C226.669 202.89 202.891 226.668 202.891 256C202.891 285.332 226.669 309.11 256.001 309.11Z" fill="#FFDA17"/>
<path d="M301.25 155.81C312.044 155.81 320.795 147.06 320.795 136.265C320.795 125.471 312.044 116.72 301.25 116.72C290.456 116.72 281.705 125.471 281.705 136.265C281.705 147.06 290.456 155.81 301.25 155.81Z" fill="#2E9E76"/>
<path d="M301.25 155.81C312.044 155.81 320.795 147.06 320.795 136.265C320.795 125.471 312.044 116.72 301.25 116.72C290.456 116.72 281.705 125.471 281.705 136.265C281.705 147.06 290.456 155.81 301.25 155.81Z" stroke="#2E9E76"/>
<path d="M256 384C326.692 384 384 326.692 384 256C384 185.308 326.692 128 256 128C185.308 128 128 185.308 128 256C128 326.692 185.308 384 256 384Z" stroke="#2E9E76" stroke-opacity="0.44"/>
<path d="M256.001 426.667C350.257 426.667 426.667 350.257 426.667 256C426.667 161.743 350.257 85.3333 256.001 85.3333C161.744 85.3333 85.334 161.743 85.334 256C85.334 350.257 161.744 426.667 256.001 426.667Z" stroke="#9B3EE4" stroke-opacity="0.31"/>
<path d="M424.905 296.109C433.557 296.109 440.57 289.096 440.57 280.444C440.57 271.792 433.557 264.779 424.905 264.779C416.254 264.779 409.24 271.792 409.24 280.444C409.24 289.096 416.254 296.109 424.905 296.109Z" fill="#9B3EE4"/>
<path d="M424.905 298.669C434.97 298.669 443.13 290.509 443.13 280.444C443.13 270.378 434.97 262.219 424.905 262.219C414.839 262.219 406.68 270.378 406.68 280.444C406.68 290.509 414.839 298.669 424.905 298.669Z" stroke="#9B3EE4"/>
<path d="M56.4871 346.625C64.8225 346.625 71.5797 339.868 71.5797 331.533C71.5797 323.197 64.8225 316.44 56.4871 316.44C48.1517 316.44 41.3945 323.197 41.3945 331.533C41.3945 339.868 48.1517 346.625 56.4871 346.625Z" fill="#F27D7D"/>
<path d="M56.4866 349.185C66.2358 349.185 74.1391 341.282 74.1391 331.533C74.1391 321.783 66.2358 313.88 56.4866 313.88C46.7373 313.88 38.834 321.783 38.834 331.533C38.834 341.282 46.7373 349.185 56.4866 349.185Z" stroke="#F27D7D"/>
<path d="M255.999 469.333C373.82 469.333 469.333 373.821 469.333 256C469.333 138.179 373.82 42.6667 255.999 42.6667C138.179 42.6667 42.666 138.179 42.666 256C42.666 373.821 138.179 469.333 255.999 469.333Z" stroke="#F27D7D" stroke-opacity="0.5"/>
</g>
<defs>
<clipPath id="clip0_1557_1564">
<rect width="512" height="512" fill="white"/>
</clipPath>
</defs>
</svg>
