<svg width="192" height="192" viewBox="0 0 192 192" fill="none" xmlns="http://www.w3.org/2000/svg">
<g clip-path="url(#clip0_1557_1564)">
<path d="M96 192C149.019 192 192 149.019 192 96C192 42.9807 149.019 0 96 0C42.9807 0 0 42.9807 0 96C0 149.019 42.9807 192 96 192Z" fill="#0D1F2F"/>
<path d="M96.0002 115.916C107 115.916 115.916 106.999 115.916 96C115.916 85.0005 107 76.0837 96.0002 76.0837C85.0008 76.0837 76.084 85.0005 76.084 96C76.084 106.999 85.0008 115.916 96.0002 115.916Z" fill="#FFDA17"/>
<path d="M112.968 58.429C117.016 58.429 120.297 55.1475 120.297 51.0996C120.297 47.0517 117.016 43.7703 112.968 43.7703C108.92 43.7703 105.639 47.0517 105.639 51.0996C105.639 55.1475 108.92 58.429 112.968 58.429Z" fill="#2E9E76"/>
<path d="M112.968 58.429C117.016 58.429 120.297 55.1475 120.297 51.0996C120.297 47.0517 117.016 43.7703 112.968 43.7703C108.92 43.7703 105.639 47.0517 105.639 51.0996C105.639 55.1475 108.92 58.429 112.968 58.429Z" stroke="#2E9E76"/>
<path d="M96 144C122.51 144 144 122.51 144 96C144 69.4903 122.51 48 96 48C69.4903 48 48 69.4903 48 96C48 122.51 69.4903 144 96 144Z" stroke="#2E9E76" stroke-opacity="0.44"/>
<path d="M96 160C131.346 160 160 131.346 160 96C160 60.6538 131.346 32 96 32C60.6538 32 32 60.6538 32 96C32 131.346 60.6538 160 96 160Z" stroke="#9B3EE4" stroke-opacity="0.31"/>
<path d="M159.341 111.041C162.586 111.041 165.216 108.411 165.216 105.166C165.216 101.922 162.586 99.292 159.341 99.292C156.097 99.292 153.467 101.922 153.467 105.166C153.467 108.411 156.097 111.041 159.341 111.041Z" fill="#9B3EE4"/>
<path d="M159.34 112.001C163.115 112.001 166.175 108.941 166.175 105.166C166.175 101.392 163.115 98.332 159.34 98.332C155.566 98.332 152.506 101.392 152.506 105.166C152.506 108.941 155.566 112.001 159.34 112.001Z" stroke="#9B3EE4"/>
<path d="M21.1832 129.984C24.3089 129.984 26.8429 127.451 26.8429 124.325C26.8429 121.199 24.3089 118.665 21.1832 118.665C18.0574 118.665 15.5234 121.199 15.5234 124.325C15.5234 127.451 18.0574 129.984 21.1832 129.984Z" fill="#F27D7D"/>
<path d="M21.1822 130.945C24.8382 130.945 27.8019 127.981 27.8019 124.325C27.8019 120.669 24.8382 117.705 21.1822 117.705C17.5262 117.705 14.5625 120.669 14.5625 124.325C14.5625 127.981 17.5262 130.945 21.1822 130.945Z" stroke="#F27D7D"/>
<path d="M96 176C140.183 176 176 140.183 176 96C176 51.8172 140.183 16 96 16C51.8172 16 16 51.8172 16 96C16 140.183 51.8172 176 96 176Z" stroke="#F27D7D" stroke-opacity="0.5"/>
</g>
<defs>
<clipPath id="clip0_1557_1564">
<rect width="192" height="192" fill="white"/>
</clipPath>
</defs>
</svg>
