<svg width="2114" height="1467" viewBox="0 0 2114 1467" fill="none" xmlns="http://www.w3.org/2000/svg">
<circle cx="1057" cy="410" r="323.5" stroke="#F5F5F5" stroke-width="3"/>
<circle cx="1057" cy="410" r="470.5" stroke="#F5F5F5" stroke-width="3"/>
<circle cx="1057" cy="410" r="627.5" stroke="#F5F5F5" stroke-width="3"/>
<circle cx="1057" cy="410" r="818.5" stroke="#F5F5F5" stroke-width="3"/>
<circle cx="1057" cy="410" r="1055.5" stroke="#F5F5F5" stroke-width="3"/>
<circle cx="1057" cy="410" r="208.855" stroke="#0D1F2F" stroke-width="3"/>
<rect x="1041.25" y="125.909" width="180.038" height="47.0112" transform="rotate(31.6708 1041.25 125.909)" fill="white"/>
<rect x="1041.25" y="125.909" width="180.038" height="47.0112" transform="rotate(31.6708 1041.25 125.909)" fill="white"/>
<rect x="1041.25" y="125.909" width="180.038" height="47.0112" transform="rotate(31.6708 1041.25 125.909)" fill="white"/>
<rect x="916.023" y="214.616" width="179.232" height="47.0112" transform="rotate(-30 916.023 214.616)" fill="white"/>
<rect x="916.023" y="214.616" width="179.232" height="47.0112" transform="rotate(-30 916.023 214.616)" fill="white"/>
<rect x="916.023" y="214.616" width="179.232" height="47.0112" transform="rotate(-30 916.023 214.616)" fill="white"/>
<rect x="963" y="180" width="171.176" height="47.0112" fill="white"/>
<rect x="963" y="180" width="171.176" height="47.0112" fill="white"/>
<rect x="963" y="180" width="171.176" height="47.0112" fill="white"/>
<path d="M951.891 229.027C951.619 228.538 951.191 228.219 950.606 228.071C950.032 227.916 949.401 228.029 948.713 228.411C948.13 228.734 947.738 229.112 947.535 229.544C947.326 229.965 947.335 230.379 947.561 230.788C947.678 230.997 947.825 231.167 948.004 231.297C948.176 231.415 948.4 231.489 948.676 231.519C948.957 231.531 949.29 231.499 949.674 231.423C950.071 231.34 950.551 231.203 951.116 231.012C952.528 230.534 953.724 230.382 954.704 230.555C955.685 230.728 956.472 231.351 957.067 232.423L957.183 232.633C957.5 233.205 957.683 233.782 957.731 234.365C957.785 234.929 957.71 235.482 957.507 236.021C957.303 236.561 956.975 237.071 956.524 237.549C956.073 238.028 955.504 238.458 954.816 238.84C954.011 239.286 953.238 239.57 952.498 239.691C951.762 239.794 951.08 239.76 950.452 239.59C949.818 239.408 949.247 239.107 948.74 238.687C948.226 238.255 947.791 237.719 947.435 237.077L947.145 236.553L949.453 235.273L949.686 235.692C950.093 236.427 950.63 236.9 951.295 237.11C951.966 237.302 952.75 237.149 953.648 236.651C954.348 236.264 954.783 235.824 954.953 235.334C955.123 234.843 955.092 234.388 954.859 233.968C954.749 233.77 954.61 233.602 954.443 233.466C954.27 233.319 954.057 233.223 953.805 233.18C953.546 233.126 953.232 233.124 952.864 233.176C952.497 233.227 952.057 233.341 951.545 233.518C950.869 233.756 950.229 233.935 949.625 234.057C949.015 234.166 948.44 234.188 947.9 234.121C947.372 234.048 946.887 233.86 946.444 233.557C946.001 233.253 945.612 232.798 945.276 232.192L945.217 232.087C944.939 231.586 944.783 231.07 944.749 230.54C944.719 229.993 944.798 229.461 944.985 228.946C945.184 228.424 945.491 227.933 945.907 227.474C946.335 227.008 946.869 226.597 947.511 226.242C948.234 225.841 948.933 225.59 949.609 225.49C950.279 225.378 950.897 225.393 951.464 225.536C952.043 225.673 952.552 225.917 952.991 226.268C953.441 226.613 953.805 227.036 954.083 227.537L954.432 228.167L952.124 229.447L951.891 229.027Z" fill="black"/>
<path d="M962.218 224.988C961.476 223.334 961.313 221.865 961.731 220.581C962.161 219.292 963.112 218.317 964.584 217.657C966.056 216.996 967.41 216.936 968.646 217.477C969.895 218.013 970.891 219.108 971.633 220.762L972.911 223.609C973.675 225.312 973.837 226.796 973.396 228.06C972.968 229.32 972.017 230.28 970.546 230.94C969.074 231.601 967.719 231.675 966.481 231.164C965.255 230.647 964.26 229.538 963.496 227.835L962.218 224.988ZM969.563 228.751C970.001 228.554 970.336 228.323 970.568 228.059C970.794 227.782 970.941 227.474 971.009 227.137C971.077 226.8 971.068 226.438 970.983 226.053C970.897 225.667 970.759 225.262 970.568 224.836L969.159 221.697C968.979 221.296 968.767 220.938 968.524 220.623C968.28 220.309 968.01 220.065 967.713 219.891C967.416 219.718 967.089 219.623 966.731 219.609C966.368 219.581 965.98 219.661 965.566 219.846C965.153 220.032 964.836 220.269 964.615 220.559C964.388 220.836 964.241 221.143 964.173 221.48C964.105 221.817 964.108 222.182 964.181 222.573C964.254 222.964 964.381 223.36 964.561 223.761L965.97 226.9C966.161 227.325 966.372 227.698 966.603 228.018C966.835 228.338 967.099 228.585 967.396 228.759C967.693 228.932 968.021 229.026 968.378 229.041C968.73 229.044 969.125 228.947 969.563 228.751Z" fill="black"/>
<path d="M978.112 212.321L980.603 211.447L984.404 222.279L990.405 220.173L991.24 222.551L982.747 225.531L978.112 212.321Z" fill="black"/>
<path d="M1005.57 215.329L1000.97 216.521L1001.06 219.596L998.386 220.287L998.114 205.897L1002.92 204.654L1009.66 217.372L1006.98 218.063L1005.57 215.329ZM1000.88 213.941L1004.38 213.035L1001.02 206.508L1000.67 206.599L1000.88 213.941Z" fill="black"/>
<path d="M1026.12 214.27L1023.51 214.713L1022.81 210.573C1022.76 210.257 1022.63 210.016 1022.42 209.848C1022.23 209.677 1021.94 209.625 1021.56 209.69L1018.57 210.2L1019.45 215.405L1016.85 215.848L1014.5 202.047L1019.78 201.147C1020.49 201.026 1021.13 201.018 1021.71 201.124C1022.28 201.229 1022.77 201.429 1023.19 201.723C1023.61 202.002 1023.96 202.356 1024.22 202.785C1024.5 203.211 1024.68 203.688 1024.77 204.213L1024.85 204.687C1024.95 205.252 1024.89 205.81 1024.67 206.361C1024.45 206.899 1024.05 207.353 1023.46 207.723L1023.52 208.078C1023.99 208.052 1024.38 208.168 1024.7 208.426C1025.02 208.681 1025.23 209.038 1025.3 209.499L1026.12 214.27ZM1018.14 207.716L1020.63 207.293C1021.26 207.185 1021.71 206.959 1021.99 206.614C1022.27 206.255 1022.36 205.807 1022.27 205.268L1022.23 205.031C1022.15 204.571 1021.92 204.205 1021.54 203.932C1021.15 203.647 1020.64 203.557 1020.01 203.665L1017.53 204.088L1018.14 207.716Z" fill="black"/>
<path d="M1059.33 202.28C1059.33 201.72 1059.11 201.233 1058.67 200.82C1058.25 200.407 1057.64 200.2 1056.85 200.2C1056.19 200.2 1055.66 200.34 1055.27 200.62C1054.89 200.887 1054.69 201.253 1054.69 201.72C1054.69 201.96 1054.74 202.18 1054.83 202.38C1054.93 202.567 1055.09 202.74 1055.31 202.9C1055.55 203.047 1055.86 203.18 1056.23 203.3C1056.62 203.42 1057.11 203.533 1057.69 203.64C1059.16 203.907 1060.28 204.353 1061.05 204.98C1061.83 205.607 1062.21 206.533 1062.21 207.76V208C1062.21 208.653 1062.09 209.247 1061.85 209.78C1061.63 210.3 1061.29 210.747 1060.85 211.12C1060.41 211.493 1059.88 211.78 1059.25 211.98C1058.63 212.18 1057.92 212.28 1057.13 212.28C1056.21 212.28 1055.4 212.153 1054.69 211.9C1054 211.633 1053.42 211.273 1052.95 210.82C1052.49 210.353 1052.13 209.813 1051.89 209.2C1051.65 208.573 1051.53 207.893 1051.53 207.16V206.56H1054.17V207.04C1054.17 207.88 1054.41 208.553 1054.89 209.06C1055.39 209.553 1056.15 209.8 1057.17 209.8C1057.97 209.8 1058.57 209.627 1058.95 209.28C1059.34 208.933 1059.53 208.52 1059.53 208.04C1059.53 207.813 1059.49 207.6 1059.41 207.4C1059.33 207.187 1059.19 207 1058.99 206.84C1058.79 206.667 1058.52 206.513 1058.17 206.38C1057.83 206.247 1057.39 206.133 1056.85 206.04C1056.15 205.92 1055.5 205.767 1054.91 205.58C1054.33 205.38 1053.81 205.12 1053.37 204.8C1052.95 204.48 1052.61 204.08 1052.37 203.6C1052.13 203.12 1052.01 202.533 1052.01 201.84V201.72C1052.01 201.147 1052.13 200.62 1052.35 200.14C1052.59 199.647 1052.92 199.22 1053.33 198.86C1053.76 198.5 1054.27 198.22 1054.85 198.02C1055.45 197.82 1056.12 197.72 1056.85 197.72C1057.68 197.72 1058.41 197.84 1059.05 198.08C1059.69 198.307 1060.23 198.62 1060.65 199.02C1061.09 199.42 1061.42 199.88 1061.63 200.4C1061.86 200.92 1061.97 201.467 1061.97 202.04V202.76H1059.33V202.28Z" fill="black"/>
<path d="M1073.84 207.706L1073.25 207.656L1070 198.269L1072.87 198.512L1075.18 205.411L1075.54 205.441L1078.97 199.028L1081.84 199.27L1077.07 207.979L1076.47 207.929L1076.06 212.831L1073.43 212.609L1073.84 207.706Z" fill="black"/>
<path d="M1096.43 205.759C1096.52 205.207 1096.39 204.69 1096.02 204.209C1095.67 203.73 1095.11 203.424 1094.33 203.292C1093.68 203.18 1093.13 203.23 1092.71 203.441C1092.28 203.639 1092.03 203.968 1091.95 204.428C1091.91 204.664 1091.92 204.889 1091.98 205.102C1092.04 205.302 1092.17 205.499 1092.36 205.695C1092.58 205.88 1092.86 206.063 1093.2 206.244C1093.56 206.427 1094.02 206.621 1094.59 206.824C1095.99 207.334 1097.02 207.962 1097.67 208.71C1098.33 209.457 1098.56 210.436 1098.35 211.645L1098.31 211.882C1098.2 212.526 1097.98 213.09 1097.65 213.576C1097.34 214.05 1096.94 214.435 1096.44 214.729C1095.95 215.023 1095.37 215.216 1094.72 215.308C1094.07 215.4 1093.36 215.38 1092.58 215.248C1091.68 215.093 1090.89 214.832 1090.24 214.463C1089.6 214.084 1089.09 213.632 1088.71 213.106C1088.32 212.568 1088.07 211.976 1087.93 211.331C1087.8 210.673 1087.8 209.983 1087.92 209.26L1088.02 208.668L1090.62 209.112L1090.54 209.585C1090.4 210.413 1090.53 211.117 1090.91 211.697C1091.32 212.266 1092.03 212.637 1093.04 212.81C1093.83 212.944 1094.44 212.873 1094.88 212.596C1095.32 212.319 1095.58 211.944 1095.66 211.471C1095.7 211.247 1095.69 211.03 1095.65 210.82C1095.61 210.596 1095.5 210.389 1095.33 210.197C1095.16 209.993 1094.92 209.796 1094.6 209.606C1094.28 209.416 1093.86 209.231 1093.35 209.049C1092.68 208.812 1092.07 208.552 1091.52 208.27C1090.97 207.974 1090.51 207.632 1090.13 207.242C1089.76 206.855 1089.5 206.405 1089.35 205.891C1089.19 205.378 1089.17 204.779 1089.29 204.096L1089.31 203.978C1089.4 203.412 1089.6 202.912 1089.91 202.477C1090.23 202.031 1090.62 201.665 1091.09 201.38C1091.57 201.097 1092.12 200.906 1092.73 200.807C1093.35 200.711 1094.03 200.724 1094.75 200.847C1095.57 200.986 1096.27 201.228 1096.86 201.572C1097.45 201.903 1097.93 202.301 1098.28 202.767C1098.65 203.235 1098.89 203.744 1099.01 204.292C1099.15 204.843 1099.17 205.401 1099.07 205.966L1098.95 206.676L1096.35 206.232L1096.43 205.759Z" fill="black"/>
<path d="M1108.49 203.823L1118.25 206.347L1117.62 208.787L1114.02 207.855L1111.15 218.97L1108.59 218.309L1111.47 207.194L1107.86 206.263L1108.49 203.823Z" fill="black"/>
<path d="M1127.34 209.103L1135.68 212.03L1134.85 214.408L1129 212.355L1127.94 215.374L1133.56 217.348L1132.73 219.726L1127.1 217.752L1126.03 220.809L1132.11 222.942L1131.27 225.32L1122.7 222.313L1127.34 209.103Z" fill="black"/>
<path d="M1144.05 215.275L1148.29 217.175L1144.71 227.101L1143.87 228.962L1144.31 229.158L1145.15 227.297L1150.18 218.027L1154.42 219.927L1148.68 232.699L1146.49 231.717L1150.33 223.177L1151.86 220.356L1151.42 220.16L1145.33 231.193L1141.71 229.571L1145.87 217.67L1145.43 217.474L1144.34 220.491L1140.51 229.031L1138.32 228.048L1144.05 215.275Z" fill="black"/>
<path d="M1166.27 230.986C1166.54 230.497 1166.58 229.964 1166.4 229.389C1166.23 228.821 1165.8 228.346 1165.11 227.965C1164.52 227.641 1164 227.508 1163.52 227.566C1163.05 227.612 1162.71 227.839 1162.48 228.247C1162.36 228.457 1162.3 228.672 1162.28 228.892C1162.27 229.1 1162.33 229.329 1162.45 229.579C1162.59 229.824 1162.79 230.089 1163.06 230.375C1163.34 230.668 1163.71 231.003 1164.17 231.381C1165.33 232.325 1166.09 233.259 1166.46 234.182C1166.84 235.105 1166.72 236.103 1166.13 237.176L1166.01 237.385C1165.7 237.957 1165.3 238.418 1164.83 238.768C1164.38 239.112 1163.88 239.341 1163.31 239.455C1162.74 239.568 1162.14 239.56 1161.49 239.431C1160.85 239.302 1160.18 239.047 1159.49 238.665C1158.69 238.219 1158.04 237.714 1157.54 237.15C1157.07 236.58 1156.74 235.984 1156.55 235.362C1156.37 234.727 1156.32 234.083 1156.41 233.431C1156.5 232.766 1156.72 232.113 1157.08 231.472L1157.37 230.947L1159.68 232.227L1159.45 232.647C1159.04 233.382 1158.92 234.087 1159.1 234.763C1159.29 235.434 1159.83 236.018 1160.73 236.516C1161.43 236.904 1162.03 237.04 1162.54 236.924C1163.05 236.808 1163.42 236.541 1163.65 236.121C1163.76 235.923 1163.83 235.717 1163.85 235.503C1163.89 235.278 1163.86 235.046 1163.76 234.81C1163.67 234.561 1163.5 234.294 1163.27 234.01C1163.03 233.725 1162.7 233.412 1162.28 233.072C1161.72 232.625 1161.22 232.177 1160.8 231.729C1160.39 231.27 1160.06 230.793 1159.83 230.3C1159.62 229.814 1159.52 229.302 1159.54 228.766C1159.56 228.23 1159.74 227.658 1160.08 227.052L1160.14 226.947C1160.42 226.446 1160.77 226.04 1161.2 225.73C1161.65 225.415 1162.14 225.2 1162.68 225.086C1163.23 224.978 1163.81 224.979 1164.42 225.088C1165.04 225.204 1165.67 225.44 1166.31 225.796C1167.03 226.197 1167.62 226.657 1168.06 227.177C1168.51 227.686 1168.82 228.219 1169 228.775C1169.19 229.339 1169.26 229.899 1169.19 230.457C1169.14 231.022 1168.97 231.555 1168.69 232.057L1168.34 232.686L1166.03 231.406L1166.27 230.986Z" fill="black"/>
</svg>
