<svg width="25" height="25" viewBox="0 0 25 25" fill="none" xmlns="http://www.w3.org/2000/svg">
<path d="M4.98983 12.0956C4.98983 11.533 5.44539 11.0768 6.00698 11.077H6.01151L7.70549 11.0826C8.26781 11.0826 8.72381 11.5392 8.72381 12.1028V18.5201C8.91456 18.4635 9.15877 18.4029 9.42737 18.3397C9.81062 18.2494 10.0816 17.9068 10.0816 17.5123V9.5527C10.0816 8.98919 10.5374 8.53221 11.0999 8.53221H12.799C13.3613 8.53221 13.8173 8.98904 13.8173 9.5524V16.9402C13.8173 16.9402 14.2425 16.768 14.6562 16.5928C14.9706 16.4597 15.1749 16.1511 15.1752 15.8092V7.00191C15.1752 6.43855 15.631 5.98186 16.1934 5.98171H17.8906C18.4526 5.9823 18.908 6.43884 18.908 7.00191V14.2545C20.3795 13.1862 21.8708 11.9011 23.0541 10.356C23.4029 9.90052 23.5006 9.30013 23.3143 8.75726C21.1406 2.49194 14.3089 -0.821655 8.05515 1.356C1.80153 3.53379 -1.50595 10.3781 0.66783 16.6435C0.913062 17.3504 1.22373 18.0328 1.59588 18.6819C1.8915 19.1925 2.45543 19.4851 3.0423 19.4326C3.36333 19.4042 3.76309 19.3643 4.23836 19.3084C4.66617 19.2591 4.98925 18.8965 4.98969 18.4649V12.0956" fill="white"/>
<path d="M4.95508 22.3874C10.3107 26.2907 17.8108 25.1053 21.7069 19.7397C23.1986 17.6856 24.0019 15.2103 24.0015 12.6701C24.0015 12.3928 23.9886 12.1199 23.9702 11.8477C19.5885 18.3947 11.4982 21.4554 4.95508 22.3874Z" fill="white"/>
</svg>